<?xml version="1.0"?>
<svg id="Layer_1" xmlns="http://www.w3.org/2000/svg" version="1.1" viewBox="300 300 1400 1400">
  
  <defs>
    
  </defs>
  <g>
    <g>
      <g>
        <path fill="#ffffff" d="M-3233.93,993.93c0-26.31-8.1-47.09-24.1-62.73-16-15.63-36.61-23.36-61.43-23.36-26.31,0-47.83,8.64-64.95,25.76-17.12,17.12-25.76,39.19-25.94,66.04-1.09,50.95,37.73,93.08,93.08,92.33,16.02,0,31.09-3.68,45.27-11.22,14.16-7.34,25.2-17.84,33.3-31.25l-33.49-25.03c-11.22,16.56-25.94,24.85-43.97,24.85-11.41,0-21.7-3.31-30.72-10.13-9.2-6.61-14.72-15.09-16.37-25.2h127.66c1.09-6.99,1.65-13.62,1.65-20.05ZM-3362.52,982.33c1.28-10.11,6.08-18.4,14.16-25.01,8.1-6.43,17.86-9.76,29.43-9.76s20.42,3.33,27.97,9.76c7.54,6.61,11.78,14.9,13.06,25.01h-84.62Z"></path>
        <path fill="#ffffff" d="M-3136.51,1049.41c-10.65,0-16.07-5.24-16.07-15.68v-218.06h-49.52v225.21c0,34.63,19.35,51.09,52.81,51.09,12.1,0,22.58-1.62,31.33-4.82v-41.25c-6.59,2.33-12.74,3.5-18.54,3.5Z"></path>
        <path fill="#ffffff" d="M-2807,925.39c-13.28-12.9-30.56-19.36-51.79-19.36-26.57,0-50.11,12.52-63.2,32.26-10.62-20.49-33.2-32.26-61.09-32.26-25.05,0-45.74,11-55.8,24.86l-.94-23.05h-46.31v184.14h48.76v-101.88c0-12.15,3.8-21.64,11.58-28.66,7.78-6.85,17.08-10.26,28.27-10.26,21.26,0,36.25,14.41,36.25,38.91v101.88h48.76v-103.03c0-11.77,3.99-21.07,11.77-27.7,7.78-6.65,17.08-10.06,28.27-10.06,21.45,0,36.44,14.41,36.44,38.91v101.88h48.76v-114.41c0-21.81-6.65-39.28-19.75-52.17Z"></path>
        <path fill="#ffffff" d="M-2610.28,906.03l-50.01,140.97-50.62-140.97h-57.26l80.06,193.79c-6.25,24.81-21.78,39.54-42.97,39.54-8.25,0-16.52-1.63-24.38-5.05v44.42c9.47,3.73,19.63,5.59,30.43,5.59,40.13,0,64.74-19.56,80.88-58.28l91.37-220.01h-57.49Z"></path>
      </g>
      <g>
        <path fill="#ffffff" d="M-3384.53,1184.47h-25.85v-36.45h4.46v32.42h21.39v4.03Z"></path>
        <path fill="#ffffff" d="M-3376.47,1184.47v-36.45h25.07v4.03h-20.64v11.67h17.82v4.03h-17.82v12.72h21.2v4h-25.63Z"></path>
        <path fill="#ffffff" d="M-3341.11,1184.47h-4.67l15.06-36.45h5.21l15.08,36.45h-4.7l-3.38-8.45h-19.19l-3.41,8.45ZM-3336.31,1172.23h16.4l-8.21-19.59-8.19,19.59Z"></path>
        <path fill="#ffffff" d="M-3303,1148.02h15.57c3.7,0,6.66.97,8.88,2.93,2.2,1.96,3.3,4.59,3.3,7.89,0,5.18-3.01,8.96-7.97,10.28l9.02,15.35h-5.23l-8.56-14.82h-10.58v14.82h-4.43v-36.45ZM-3298.57,1152.05v13.66h10.98c5.02,0,7.73-2.66,7.73-6.87s-2.71-6.79-7.73-6.79h-10.98Z"></path>
        <path fill="#ffffff" d="M-3265.5,1148.02h4.64l23.46,29.87v-29.87h4.43v36.45h-4.64l-23.43-29.77v29.77h-4.46v-36.45Z"></path>
        <path fill="#ffffff" d="M-3221.07,1184.47v-36.45h4.43v36.45h-4.43Z"></path>
        <path fill="#ffffff" d="M-3204.74,1148.02h4.64l23.46,29.87v-29.87h4.43v36.45h-4.64l-23.43-29.77v29.77h-4.46v-36.45Z"></path>
        <path fill="#ffffff" d="M-3153.5,1182.54c-2.87-1.64-5.1-3.89-6.74-6.76-1.64-2.87-2.47-6.04-2.47-9.53s.83-6.71,2.5-9.58c1.64-2.87,3.89-5.1,6.76-6.74,2.87-1.61,6.01-2.41,9.47-2.41,6.41,0,12,3.01,15.57,8.27l-3.46,2.52c-3.06-4.43-7.09-6.66-12.1-6.66-3.97,0-7.3,1.4-10.01,4.16-2.71,2.79-4.08,6.28-4.08,10.44-.13,8.27,6.01,14.76,14.09,14.63,3.95,0,7.25-1.31,9.29-3.44,2.04-2.12,3.25-4.64,3.65-7.43h-12.96v-4.03h17.58c.03.54.05,1.1.05,1.66,0,4.75-1.66,9.07-4.64,12.24-2.98,3.17-7.6,5.12-12.99,5.12-3.46,0-6.63-.83-9.5-2.47Z"></path>
        <path fill="#ffffff" d="M-3101.68,1174.76c2.07,3.73,5.64,6.23,10.68,6.23,2.47,0,4.48-.54,6.07-1.61,1.56-1.05,2.34-2.41,2.34-4.11s-.7-3.03-2.07-4.03c-1.37-.99-3.73-2.04-7.03-3.14-1.53-.51-2.82-.99-3.86-1.42-1.05-.43-2.12-.97-3.22-1.61-1.1-.64-1.99-1.31-2.63-2.04-1.32-1.39-2.23-3.44-2.23-5.82,0-3.11,1.53-5.77,3.81-7.33,2.28-1.56,5.18-2.39,8.11-2.39,3.33,0,6.33.91,8.4,2.36,2.04,1.45,3.35,2.9,4.35,4.59l-3.46,2.52c-.78-1.26-1.72-2.34-3.22-3.52-1.53-1.16-3.68-1.91-6.07-1.91-2.04,0-3.76.48-5.18,1.48-1.42.99-2.12,2.36-2.12,4.13,0,1.39.62,2.55,1.45,3.33.4.4,1.02.81,1.85,1.21.83.43,1.61.78,2.36,1.05.72.29,1.74.64,3.06,1.1,1.58.54,2.9,1.02,3.95,1.45,1.05.43,2.17.97,3.33,1.64,1.15.67,2.07,1.4,2.74,2.12,1.34,1.48,2.31,3.6,2.31,6.17,0,2.84-1.24,5.18-3.68,7.03-2.44,1.85-5.56,2.76-9.34,2.76-3.36,0-6.25-.75-8.7-2.23-2.47-1.48-4.24-3.36-5.31-5.64l3.33-2.39Z"></path>
        <path fill="#ffffff" d="M-3052.1,1185.01c-2.63,0-5.1-.46-7.38-1.37-2.31-.91-4.29-2.17-5.93-3.81-3.33-3.25-5.37-8.1-5.37-13.58,0-3.65.81-6.9,2.44-9.77,1.64-2.87,3.86-5.07,6.71-6.63,2.82-1.56,6.01-2.34,9.53-2.34s6.71.78,9.55,2.34c2.82,1.56,5.05,3.76,6.68,6.63,1.64,2.87,2.44,6.12,2.44,9.77,0,5.48-2.04,10.33-5.34,13.58-1.66,1.64-3.65,2.9-5.93,3.81-2.31.91-4.78,1.37-7.41,1.37ZM-3066.14,1166.25c0,4.35,1.31,7.86,3.95,10.57,2.6,2.71,5.98,4.05,10.09,4.05s7.49-1.34,10.12-4.05c2.6-2.71,3.92-6.23,3.92-10.57s-1.31-7.86-3.92-10.57c-2.63-2.69-6.01-4.03-10.12-4.03s-7.49,1.34-10.09,4.03c-2.63,2.71-3.95,6.23-3.95,10.57Z"></path>
        <path fill="#ffffff" d="M-2998.04,1184.47h-25.85v-36.45h4.46v32.42h21.39v4.03Z"></path>
        <path fill="#ffffff" d="M-2976.8,1185.01c-4.64,0-8.35-1.23-11.11-3.68-2.76-2.44-4.13-5.74-4.13-9.88v-23.43h4.43v23.19c0,2.93.99,5.26,2.95,7.01s4.56,2.63,7.86,2.63,5.93-.89,7.89-2.63c1.96-1.74,2.93-4.08,2.93-7.01v-23.19h4.43v23.43c0,4.14-1.37,7.44-4.13,9.88-2.76,2.44-6.47,3.68-11.11,3.68Z"></path>
        <path fill="#ffffff" d="M-2954.04,1152.16v-4.14h28.8v4.14h-12.18v32.31h-4.43v-32.31h-12.19Z"></path>
        <path fill="#ffffff" d="M-2917.32,1184.47v-36.45h4.43v36.45h-4.43Z"></path>
        <path fill="#ffffff" d="M-2884.66,1185.01c-2.63,0-5.1-.46-7.38-1.37-2.31-.91-4.29-2.17-5.93-3.81-3.33-3.25-5.37-8.1-5.37-13.58,0-3.65.81-6.9,2.44-9.77,1.64-2.87,3.86-5.07,6.71-6.63,2.82-1.56,6.01-2.34,9.53-2.34s6.71.78,9.55,2.34c2.82,1.56,5.05,3.76,6.68,6.63,1.64,2.87,2.44,6.12,2.44,9.77,0,5.48-2.04,10.33-5.34,13.58-1.66,1.64-3.65,2.9-5.93,3.81-2.31.91-4.78,1.37-7.41,1.37ZM-2898.7,1166.25c0,4.35,1.31,7.86,3.95,10.57,2.6,2.71,5.98,4.05,10.09,4.05s7.49-1.34,10.12-4.05c2.6-2.71,3.92-6.23,3.92-10.57s-1.31-7.86-3.92-10.57c-2.63-2.69-6.01-4.03-10.12-4.03s-7.49,1.34-10.09,4.03c-2.63,2.71-3.95,6.23-3.95,10.57Z"></path>
        <path fill="#ffffff" d="M-2856.45,1148.02h4.64l23.46,29.87v-29.87h4.43v36.45h-4.64l-23.43-29.77v29.77h-4.46v-36.45Z"></path>
        <path fill="#ffffff" d="M-2810.96,1174.76c2.07,3.73,5.64,6.23,10.68,6.23,2.47,0,4.48-.54,6.07-1.61,1.56-1.05,2.34-2.41,2.34-4.11s-.7-3.03-2.07-4.03c-1.37-.99-3.73-2.04-7.03-3.14-1.53-.51-2.82-.99-3.86-1.42s-2.12-.97-3.22-1.61c-1.1-.64-1.99-1.31-2.63-2.04-1.32-1.39-2.23-3.44-2.23-5.82,0-3.11,1.53-5.77,3.81-7.33,2.28-1.56,5.18-2.39,8.11-2.39,3.33,0,6.33.91,8.4,2.36,2.04,1.45,3.35,2.9,4.35,4.59l-3.46,2.52c-.78-1.26-1.72-2.34-3.22-3.52-1.53-1.16-3.68-1.91-6.07-1.91-2.04,0-3.76.48-5.18,1.48-1.42.99-2.12,2.36-2.12,4.13,0,1.39.62,2.55,1.45,3.33.4.4,1.02.81,1.85,1.21.83.43,1.61.78,2.36,1.05.72.29,1.74.64,3.06,1.1,1.58.54,2.9,1.02,3.95,1.45,1.05.43,2.17.97,3.33,1.64,1.15.67,2.07,1.4,2.74,2.12,1.34,1.48,2.31,3.6,2.31,6.17,0,2.84-1.24,5.18-3.68,7.03-2.44,1.85-5.56,2.76-9.34,2.76-3.36,0-6.25-.75-8.7-2.23-2.47-1.48-4.24-3.36-5.31-5.64l3.33-2.39Z"></path>
      </g>
    </g>
    <g>
      <rect fill="#ffffff" x="-3862.26" y="915.1" width="169.79" height="169.79" rx="-1761.34" ry="-1761.34"></rect>
      <g>
        <path fill="#ffffff" d="M-3525.58,956.85c-6.24,0-12.48-2.38-17.25-7.13l-137.92-137.58c-10.19-10.17-22.54-16.97-35.71-19.67-15.06-3.09-30.29-1-45.25,6.22-6.77,3.27-13.15,7.85-18.97,13.62l-137.94,137c-9.57,9.5-25.03,9.45-34.53-.12-9.5-9.57-9.45-25.03.12-34.54l137.94-137c9.68-9.61,20.5-17.34,32.17-22.96,24.83-11.97,50.49-15.37,76.28-10.07,22.54,4.62,43.43,16.01,60.39,32.93l137.92,137.58c9.55,9.53,9.57,24.99.04,34.54-4.77,4.78-11.03,7.17-17.29,7.17Z"></path>
        <path fill="#ffffff" d="M-3710.08,1276.48c-6.24,0-12.48-2.38-17.25-7.13-9.55-9.53-9.57-24.99-.04-34.54l137.58-137.92c10.17-10.19,16.97-22.55,19.67-35.72,3.09-15.06,1-30.29-6.22-45.25-3.27-6.78-7.85-13.16-13.62-18.97l-137-137.94c-9.5-9.57-9.45-25.03.12-34.54,9.57-9.51,25.03-9.45,34.54.12l137,137.94c9.61,9.67,17.33,20.49,22.96,32.17,11.97,24.83,15.36,50.49,10.07,76.28-4.62,22.55-16.01,43.43-32.94,60.4l-137.58,137.92c-4.77,4.78-11.03,7.17-17.29,7.17Z"></path>
        <path fill="#ffffff" d="M-3824.53,1257.79c-7.83,0-15.69-.81-23.56-2.42-22.54-4.62-43.43-16.01-60.39-32.94l-137.92-137.58c-9.55-9.53-9.57-24.99-.04-34.54,9.52-9.55,24.99-9.57,34.54-.04l137.92,137.58c10.19,10.17,22.54,16.97,35.72,19.67,15.06,3.08,30.28.99,45.25-6.22,6.77-3.27,13.16-7.85,18.97-13.63l137.94-137c9.57-9.5,25.03-9.45,34.54.12,9.5,9.57,9.45,25.03-.12,34.54l-137.94,137c-9.67,9.61-20.49,17.33-32.17,22.96-17.25,8.32-34.9,12.49-52.72,12.49Z"></path>
        <path fill="#ffffff" d="M-3845.1,1182.6c-6.28,0-12.55-2.4-17.33-7.21l-137-137.94c-9.61-9.67-17.33-20.49-22.96-32.17-11.97-24.83-15.36-50.49-10.07-76.28,4.62-22.54,16.01-43.43,32.94-60.4l137.58-137.92c9.52-9.55,24.99-9.57,34.54-.04,9.55,9.53,9.57,24.99.04,34.54l-137.58,137.92c-10.17,10.19-16.97,22.54-19.67,35.72-3.09,15.06-1,30.28,6.22,45.25,3.27,6.77,7.85,13.15,13.62,18.97l137,137.94c9.5,9.57,9.45,25.03-.12,34.54-4.76,4.73-10.99,7.09-17.21,7.09Z"></path>
      </g>
    </g>
  </g>
  <g>
    <g>
      <g>
        <path fill="#ffffff" d="M-1400.43,1311.58c0-25.95-7.99-46.43-23.77-61.86-15.78-15.41-36.1-23.03-60.58-23.03-25.95,0-47.16,8.52-64.04,25.4-16.88,16.88-25.4,38.65-25.58,65.12-1.08,50.24,37.2,91.78,91.78,91.05,15.8,0,30.66-3.63,44.64-11.07,13.96-7.23,24.85-17.59,32.84-30.82l-33.02-24.69c-11.07,16.33-25.58,24.5-43.35,24.5-11.25,0-21.4-3.26-30.29-9.99-9.07-6.52-14.51-14.88-16.14-24.85h125.88c1.08-6.89,1.63-13.43,1.63-19.77ZM-1527.23,1300.14c1.26-9.97,5.99-18.14,13.96-24.66,7.99-6.34,17.61-9.62,29.02-9.62s20.14,3.28,27.58,9.62c7.44,6.52,11.62,14.7,12.88,24.66h-83.45Z"></path>
        <path fill="#ffffff" d="M-1304.36,1366.29c-10.51,0-15.84-5.17-15.84-15.46v-215.02h-48.84v222.08c0,34.15,19.08,50.38,52.07,50.38,11.93,0,22.27-1.59,30.89-4.76v-40.67c-6.5,2.29-12.56,3.45-18.28,3.45Z"></path>
        <path fill="#ffffff" d="M-979.44,1243.99c-13.1-12.72-30.13-19.09-51.07-19.09-26.2,0-49.41,12.34-62.32,31.81-10.47-20.21-32.74-31.81-60.24-31.81-24.71,0-45.1,10.85-55.03,24.52l-.92-22.73h-45.67v181.58h48.09v-100.46c0-11.99,3.74-21.34,11.42-28.26,7.68-6.75,16.84-10.11,27.88-10.11,20.96,0,35.74,14.21,35.74,38.37v100.46h48.09v-101.6c0-11.61,3.93-20.77,11.61-27.31,7.68-6.56,16.84-9.92,27.88-9.92,21.15,0,35.93,14.21,35.93,38.37v100.46h48.09v-112.82c0-21.51-6.56-38.73-19.47-51.45Z"></path>
        <path fill="#ffffff" d="M-785.46,1224.9l-49.32,139.01-49.92-139.01h-56.47l78.95,191.1c-6.17,24.47-21.47,38.99-42.37,38.99-8.13,0-16.29-1.61-24.04-4.98v43.8c9.34,3.68,19.36,5.51,30.01,5.51,39.57,0,63.84-19.28,79.75-57.47l90.1-216.95h-56.69Z"></path>
      </g>
      <g>
        <path fill="#ffffff" d="M-1548.93,1499.47h-25.49v-35.94h4.39v31.97h21.09v3.97Z"></path>
        <path fill="#ffffff" d="M-1540.98,1499.47v-35.94h24.72v3.97h-20.35v11.51h17.57v3.97h-17.57v12.54h20.91v3.94h-25.28Z"></path>
        <path fill="#ffffff" d="M-1506.12,1499.47h-4.61l14.85-35.94h5.14l14.87,35.94h-4.63l-3.33-8.34h-18.92l-3.36,8.34ZM-1501.38,1487.4h16.17l-8.1-19.32-8.07,19.32Z"></path>
        <path fill="#ffffff" d="M-1468.53,1463.53h15.35c3.65,0,6.56.95,8.76,2.89,2.17,1.93,3.26,4.52,3.26,7.78,0,5.11-2.96,8.84-7.86,10.13l8.89,15.14h-5.16l-8.44-14.61h-10.43v14.61h-4.37v-35.94ZM-1464.17,1467.5v13.47h10.83c4.95,0,7.62-2.62,7.62-6.78s-2.67-6.7-7.62-6.7h-10.83Z"></path>
        <path fill="#ffffff" d="M-1431.55,1463.53h4.58l23.13,29.46v-29.46h4.37v35.94h-4.58l-23.11-29.35v29.35h-4.39v-35.94Z"></path>
        <path fill="#ffffff" d="M-1387.75,1499.47v-35.94h4.37v35.94h-4.37Z"></path>
        <path fill="#ffffff" d="M-1371.64,1463.53h4.58l23.13,29.46v-29.46h4.37v35.94h-4.58l-23.11-29.35v29.35h-4.39v-35.94Z"></path>
        <path fill="#ffffff" d="M-1321.12,1497.57c-2.83-1.62-5.03-3.84-6.64-6.67-1.61-2.83-2.43-5.96-2.43-9.4s.82-6.62,2.46-9.45c1.61-2.83,3.84-5.03,6.67-6.64,2.83-1.59,5.93-2.38,9.34-2.38,6.33,0,11.83,2.96,15.35,8.15l-3.41,2.49c-3.02-4.37-6.99-6.56-11.94-6.56-3.92,0-7.2,1.38-9.87,4.1-2.67,2.75-4.02,6.19-4.02,10.3-.13,8.15,5.93,14.56,13.9,14.42,3.89,0,7.15-1.3,9.16-3.39,2.01-2.09,3.2-4.58,3.6-7.33h-12.78v-3.97h17.34c.03.53.05,1.08.05,1.64,0,4.68-1.64,8.95-4.58,12.07-2.94,3.12-7.49,5.05-12.81,5.05-3.41,0-6.54-.82-9.37-2.43Z"></path>
        <path fill="#ffffff" d="M-1270.02,1489.89c2.04,3.68,5.56,6.14,10.53,6.14,2.43,0,4.42-.53,5.98-1.59,1.54-1.03,2.3-2.38,2.3-4.05s-.69-2.99-2.04-3.97c-1.35-.98-3.68-2.01-6.93-3.1-1.51-.5-2.78-.98-3.81-1.4-1.03-.42-2.09-.95-3.18-1.59-1.08-.64-1.96-1.3-2.59-2.01-1.3-1.38-2.2-3.39-2.2-5.74,0-3.07,1.51-5.69,3.76-7.23,2.25-1.53,5.11-2.36,7.99-2.36,3.28,0,6.25.9,8.28,2.33,2.01,1.43,3.31,2.86,4.29,4.52l-3.41,2.49c-.77-1.24-1.69-2.3-3.18-3.47-1.51-1.14-3.63-1.88-5.98-1.88-2.01,0-3.71.48-5.11,1.46-1.4.98-2.09,2.33-2.09,4.08,0,1.38.61,2.51,1.43,3.28.4.4,1.01.79,1.83,1.19.82.42,1.59.77,2.33,1.03.71.29,1.72.64,3.02,1.08,1.56.53,2.86,1.01,3.89,1.43,1.03.42,2.14.95,3.28,1.61,1.14.66,2.04,1.38,2.7,2.09,1.32,1.46,2.28,3.55,2.28,6.09,0,2.8-1.22,5.11-3.63,6.93-2.41,1.82-5.48,2.72-9.21,2.72-3.31,0-6.17-.74-8.58-2.2-2.43-1.46-4.18-3.31-5.24-5.56l3.28-2.36Z"></path>
        <path fill="#ffffff" d="M-1221.13,1500c-2.59,0-5.03-.45-7.28-1.35-2.28-.9-4.23-2.14-5.85-3.76-3.28-3.2-5.29-7.99-5.29-13.39,0-3.6.79-6.8,2.41-9.63,1.61-2.83,3.81-5,6.62-6.54,2.78-1.53,5.93-2.3,9.4-2.3s6.62.77,9.42,2.3c2.78,1.53,4.98,3.7,6.59,6.54,1.61,2.83,2.41,6.03,2.41,9.63,0,5.4-2.01,10.19-5.27,13.39-1.64,1.62-3.6,2.86-5.85,3.76-2.28.9-4.71,1.35-7.3,1.35ZM-1234.97,1481.5c0,4.29,1.3,7.76,3.89,10.43,2.57,2.67,5.9,4,9.95,4s7.38-1.32,9.98-4c2.57-2.67,3.86-6.14,3.86-10.43s-1.3-7.76-3.86-10.43c-2.59-2.65-5.93-3.97-9.98-3.97s-7.38,1.32-9.95,3.97c-2.59,2.67-3.89,6.14-3.89,10.43Z"></path>
        <path fill="#ffffff" d="M-1167.82,1499.47h-25.49v-35.94h4.39v31.97h21.09v3.97Z"></path>
        <path fill="#ffffff" d="M-1146.88,1500c-4.58,0-8.23-1.22-10.96-3.63-2.73-2.41-4.08-5.66-4.08-9.74v-23.1h4.37v22.87c0,2.89.98,5.19,2.91,6.91,1.93,1.72,4.5,2.59,7.75,2.59s5.85-.87,7.78-2.59c1.93-1.72,2.89-4.02,2.89-6.91v-22.87h4.37v23.1c0,4.08-1.35,7.33-4.08,9.74-2.73,2.41-6.38,3.63-10.96,3.63Z"></path>
        <path fill="#ffffff" d="M-1124.43,1467.61v-4.08h28.4v4.08h-12.02v31.86h-4.37v-31.86h-12.02Z"></path>
        <path fill="#ffffff" d="M-1088.22,1499.47v-35.94h4.37v35.94h-4.37Z"></path>
        <path fill="#ffffff" d="M-1056.02,1500c-2.59,0-5.03-.45-7.28-1.35-2.28-.9-4.23-2.14-5.85-3.76-3.28-3.2-5.29-7.99-5.29-13.39,0-3.6.79-6.8,2.41-9.63,1.61-2.83,3.81-5,6.62-6.54,2.78-1.53,5.93-2.3,9.4-2.3s6.62.77,9.42,2.3c2.78,1.53,4.98,3.7,6.59,6.54,1.61,2.83,2.41,6.03,2.41,9.63,0,5.4-2.01,10.19-5.27,13.39-1.64,1.62-3.6,2.86-5.85,3.76-2.28.9-4.71,1.35-7.3,1.35ZM-1069.86,1481.5c0,4.29,1.3,7.76,3.89,10.43,2.57,2.67,5.9,4,9.95,4s7.38-1.32,9.98-4c2.57-2.67,3.86-6.14,3.86-10.43s-1.3-7.76-3.86-10.43c-2.59-2.65-5.93-3.97-9.98-3.97s-7.38,1.32-9.95,3.97c-2.59,2.67-3.89,6.14-3.89,10.43Z"></path>
        <path fill="#ffffff" d="M-1028.2,1463.53h4.58l23.13,29.46v-29.46h4.37v35.94h-4.58l-23.1-29.35v29.35h-4.39v-35.94Z"></path>
        <path fill="#ffffff" d="M-983.34,1489.89c2.04,3.68,5.56,6.14,10.53,6.14,2.43,0,4.42-.53,5.98-1.59,1.54-1.03,2.3-2.38,2.3-4.05s-.69-2.99-2.04-3.97c-1.35-.98-3.68-2.01-6.93-3.1-1.51-.5-2.78-.98-3.81-1.4-1.03-.42-2.09-.95-3.18-1.59-1.08-.64-1.96-1.3-2.59-2.01-1.3-1.38-2.2-3.39-2.2-5.74,0-3.07,1.51-5.69,3.76-7.23,2.25-1.53,5.11-2.36,7.99-2.36,3.28,0,6.25.9,8.28,2.33,2.01,1.43,3.31,2.86,4.29,4.52l-3.41,2.49c-.77-1.24-1.69-2.3-3.18-3.47-1.51-1.14-3.63-1.88-5.98-1.88-2.01,0-3.71.48-5.11,1.46-1.4.98-2.09,2.33-2.09,4.08,0,1.38.61,2.51,1.43,3.28.4.4,1.01.79,1.83,1.19.82.42,1.59.77,2.33,1.03.71.29,1.72.64,3.02,1.08,1.56.53,2.86,1.01,3.89,1.43,1.03.42,2.14.95,3.28,1.61,1.14.66,2.04,1.38,2.7,2.09,1.32,1.46,2.28,3.55,2.28,6.09,0,2.8-1.22,5.11-3.63,6.93-2.41,1.82-5.48,2.72-9.21,2.72-3.31,0-6.17-.74-8.58-2.2-2.43-1.46-4.18-3.31-5.24-5.56l3.28-2.36Z"></path>
      </g>
    </g>
    <g>
      <rect fill="#ffffff" x="-1235.31" y="688.92" width="167.43" height="167.43" rx="-450.22" ry="-450.22"></rect>
      <g>
        <path fill="#ffffff" d="M-903.31,730.09c-6.15,0-12.31-2.34-17.01-7.03l-136-135.66c-10.05-10.03-22.23-16.73-35.22-19.4-14.85-3.05-29.86-.98-44.62,6.13-6.68,3.22-12.97,7.74-18.71,13.43l-136.02,135.09c-9.44,9.37-24.68,9.32-34.05-.12-9.37-9.44-9.32-24.68.12-34.05l136.02-135.09c9.54-9.48,20.21-17.09,31.72-22.64,24.48-11.81,49.79-15.15,75.21-9.93,22.23,4.56,42.82,15.79,59.55,32.48l136,135.66c9.42,9.39,9.43,24.64.04,34.05-4.7,4.72-10.88,7.07-17.05,7.07Z"></path>
        <path fill="#ffffff" d="M-1085.23,1045.27c-6.15,0-12.31-2.34-17.01-7.03-9.42-9.39-9.43-24.64-.04-34.05l135.66-136c10.03-10.05,16.73-22.23,19.4-35.22,3.05-14.85.98-29.87-6.13-44.62-3.22-6.68-7.74-12.98-13.43-18.71l-135.09-136.02c-9.37-9.44-9.32-24.68.12-34.05,9.44-9.37,24.68-9.32,34.05.12l135.09,136.02c9.47,9.54,17.09,20.21,22.64,31.72,11.81,24.48,15.15,49.78,9.93,75.21-4.56,22.23-15.79,42.82-32.48,59.56l-135.66,136c-4.7,4.72-10.88,7.07-17.05,7.07Z"></path>
        <path fill="#ffffff" d="M-1198.09,1026.84c-7.72,0-15.47-.79-23.23-2.39-22.23-4.56-42.82-15.79-59.55-32.48l-136-135.66c-9.42-9.39-9.43-24.64-.04-34.05,9.39-9.42,24.64-9.44,34.05-.04l136,135.66c10.05,10.03,22.23,16.73,35.22,19.4,14.85,3.04,29.86.98,44.62-6.13,6.68-3.22,12.97-7.74,18.71-13.44l136.02-135.09c9.44-9.37,24.68-9.32,34.05.12,9.37,9.44,9.32,24.68-.12,34.05l-136.02,135.09c-9.54,9.47-20.21,17.09-31.72,22.64-17.01,8.2-34.42,12.32-51.99,12.32Z"></path>
        <path fill="#ffffff" d="M-1218.38,952.7c-6.19,0-12.38-2.37-17.09-7.11l-135.09-136.02c-9.47-9.54-17.09-20.21-22.64-31.72-11.81-24.48-15.15-49.79-9.93-75.22,4.56-22.23,15.79-42.82,32.48-59.55l135.66-136c9.39-9.42,24.64-9.44,34.05-.04,9.42,9.39,9.43,24.64.04,34.05l-135.66,136c-10.03,10.05-16.73,22.23-19.4,35.22-3.05,14.85-.98,29.86,6.13,44.62,3.22,6.68,7.74,12.97,13.43,18.7l135.09,136.02c9.37,9.44,9.32,24.68-.12,34.05-4.7,4.67-10.83,7-16.97,7Z"></path>
      </g>
    </g>
  </g>
  <g>
    <rect fill="#ffffff" x="804.62" y="804.62" width="390.76" height="390.76" rx="195.38" ry="195.38"></rect>
    <g>
      <path fill="#ffffff" d="M1579.46,900.7c-14.36,0-28.72-5.47-39.69-16.41l-317.4-316.62c-23.46-23.4-51.88-39.05-82.19-45.27-34.66-7.11-69.7-2.29-104.14,14.31-15.59,7.52-30.27,18.06-43.66,31.36l-317.45,315.29c-22.02,21.87-57.61,21.75-79.48-.27-21.87-22.02-21.75-57.61.27-79.48l317.45-315.29c22.27-22.11,47.18-39.9,74.04-52.85,57.13-27.56,116.2-35.36,175.54-23.18,51.88,10.63,99.95,36.84,138.99,75.79l317.41,316.62c21.97,21.92,22.02,57.5.1,79.48-10.98,11.01-25.38,16.51-39.79,16.51Z"></path>
      <path fill="#ffffff" d="M1154.87,1636.29c-14.36,0-28.72-5.47-39.69-16.41-21.97-21.92-22.02-57.5-.1-79.48l316.62-317.4c23.4-23.46,39.05-51.89,45.27-82.2,7.11-34.66,2.29-69.7-14.32-104.13-7.52-15.6-18.07-30.28-31.36-43.66l-315.29-317.45c-21.87-22.02-21.75-57.61.27-79.48,22.02-21.88,57.61-21.75,79.48.27l315.29,317.45c22.11,22.26,39.89,47.17,52.85,74.04,27.56,57.13,35.36,116.19,23.18,175.54-10.64,51.89-36.85,99.95-75.8,139l-316.62,317.4c-10.98,11.01-25.38,16.51-39.79,16.51Z"></path>
      <path fill="#ffffff" d="M891.47,1593.28c-18.02,0-36.1-1.85-54.22-5.57-51.88-10.64-99.94-36.85-138.99-75.8l-317.41-316.62c-21.97-21.92-22.02-57.5-.1-79.48,21.92-21.98,57.5-22.02,79.48-.1l317.4,316.62c23.46,23.4,51.88,39.06,82.2,45.27,34.65,7.09,69.69,2.29,104.13-14.32,15.59-7.52,30.28-18.07,43.66-31.36l317.45-315.29c22.02-21.87,57.61-21.75,79.48.27,21.87,22.02,21.75,57.61-.27,79.48l-317.45,315.29c-22.26,22.11-47.17,39.89-74.03,52.85-39.69,19.15-80.33,28.75-121.33,28.75Z"></path>
      <path fill="#ffffff" d="M844.12,1420.24c-14.45,0-28.89-5.53-39.88-16.6l-315.29-317.45c-22.11-22.26-39.89-47.17-52.85-74.03-27.56-57.14-35.36-116.2-23.18-175.55,10.64-51.88,36.85-99.95,75.8-138.99l316.62-317.4c21.92-21.98,57.5-22.02,79.48-.1,21.97,21.92,22.02,57.5.1,79.48l-316.62,317.4c-23.4,23.46-39.05,51.88-45.27,82.2-7.11,34.66-2.29,69.7,14.32,104.14,7.52,15.58,18.07,30.27,31.36,43.65l315.29,317.45c21.87,22.02,21.75,57.61-.27,79.48-10.96,10.89-25.28,16.33-39.6,16.33Z"></path>
    </g>
  </g>
</svg>